<?xml version="1.0" standalone="no"?>
<!DOCTYPE svg PUBLIC "-//W3C//DTD SVG 20010904//EN"
 "http://www.w3.org/TR/2001/REC-SVG-20010904/DTD/svg10.dtd">
<svg version="1.0" xmlns="http://www.w3.org/2000/svg"
 width="50.000000pt" height="50.000000pt" viewBox="0 0 50.000000 50.000000"
 preserveAspectRatio="xMidYMid meet">

<g transform="translate(0.000000,50.000000) scale(0.100000,-0.100000)"
fill="#000000" stroke="none">
<path d="M82 480 c-66 -30 -82 -74 -82 -230 0 -101 4 -133 19 -167 18 -38 61
-73 91 -73 6 0 10 53 10 154 0 140 2 156 21 180 64 82 188 74 234 -14 22 -42
19 -112 -5 -143 l-20 -25 42 -37 c34 -29 40 -39 32 -52 -6 -9 -15 -18 -21 -20
-11 -4 -185 141 -192 159 -2 6 4 17 14 24 16 12 23 10 52 -12 l33 -25 16 33
c20 42 7 81 -35 103 -41 21 -78 10 -102 -29 -16 -26 -19 -51 -19 -168 l0 -138
103 0 c193 1 227 38 227 250 0 156 -16 200 -82 230 -62 28 -274 28 -336 0z"/>
</g>
</svg>
